<?xml version="1.0" encoding="UTF-8" standalone="no"?>
<!-- Created with Inkscape (http://www.inkscape.org/) -->

<svg
   width="512"
   height="512"
   viewBox="0 0 479.99999 480.00001"
   id="svg2"
   version="1.1"
   inkscape:version="1.3 (0e150ed, 2023-07-21)"
   sodipodi:docname="connection-1.svg"
   inkscape:export-filename="/Users/sss/Desktop/EV Plugs/type1.png"
   inkscape:export-xdpi="600"
   inkscape:export-ydpi="600"
   xmlns:inkscape="http://www.inkscape.org/namespaces/inkscape"
   xmlns:sodipodi="http://sodipodi.sourceforge.net/DTD/sodipodi-0.dtd"
   xmlns="http://www.w3.org/2000/svg"
   xmlns:svg="http://www.w3.org/2000/svg"
   xmlns:rdf="http://www.w3.org/1999/02/22-rdf-syntax-ns#"
   xmlns:cc="http://creativecommons.org/ns#"
   xmlns:dc="http://purl.org/dc/elements/1.1/">
  <defs
     id="defs4" />
  <sodipodi:namedview
     id="base"
     pagecolor="#ffffff"
     bordercolor="#666666"
     borderopacity="1.0"
     inkscape:pageopacity="0.0"
     inkscape:pageshadow="2"
     inkscape:zoom="2.1286877"
     inkscape:cx="237.47024"
     inkscape:cy="291.96391"
     inkscape:document-units="px"
     inkscape:current-layer="layer1"
     showgrid="true"
     inkscape:snap-to-guides="false"
     inkscape:snap-grids="false"
     inkscape:window-width="1512"
     inkscape:window-height="916"
     inkscape:window-x="0"
     inkscape:window-y="38"
     inkscape:window-maximized="0"
     units="px"
     inkscape:showpageshadow="2"
     inkscape:pagecheckerboard="0"
     inkscape:deskcolor="#d1d1d1">
    <inkscape:grid
       type="xygrid"
       id="grid4198"
       originx="0"
       originy="0"
       spacingy="1"
       spacingx="1"
       units="px"
       visible="true" />
  </sodipodi:namedview>
  <metadata
     id="metadata7">
    <rdf:RDF>
      <cc:Work
         rdf:about="">
        <dc:format>image/svg+xml</dc:format>
        <dc:type
           rdf:resource="http://purl.org/dc/dcmitype/StillImage" />
        <dc:title />
      </cc:Work>
    </rdf:RDF>
  </metadata>
  <g
     inkscape:label="Layer 1"
     inkscape:groupmode="layer"
     id="layer1"
     transform="translate(0,-572.36211)">
    <path
       id="path4200"
       style="fill:#000000;fill-opacity:1;fill-rule:evenodd;stroke:#000000;stroke-width:7.69001961;stroke-linecap:butt;stroke-linejoin:miter;stroke-miterlimit:4;stroke-dasharray:none;stroke-opacity:1"
       d="M 241.34033 685.46086 A 129.34492 130.49295 0 0 0 111.99646 815.95464 A 129.34492 130.49295 0 0 0 241.34033 946.44841 A 129.34492 130.49295 0 0 0 370.68604 815.95464 A 129.34492 130.49295 0 0 0 241.34033 685.46086 z M 182.79236 714.0363 A 49.110081 47.962063 0 0 1 231.90125 761.99712 A 49.110081 47.962063 0 0 1 182.79236 809.95977 A 49.110081 47.962063 0 0 1 133.68164 761.99712 A 49.110081 47.962063 0 0 1 182.79236 714.0363 z M 302.18628 715.18438 A 49.110081 47.962063 0 0 1 351.297 763.14519 A 49.110081 47.962063 0 0 1 302.18628 811.10784 A 49.110081 47.962063 0 0 1 253.07556 763.14519 A 49.110081 47.962063 0 0 1 302.18628 715.18438 z M 323.54004 821.64922 A 36.323532 36.323536 0 0 1 359.86267 857.97185 A 36.323532 36.323536 0 0 1 323.54004 894.29631 A 36.323532 36.323536 0 0 1 287.21558 857.97185 A 36.323532 36.323536 0 0 1 323.54004 821.64922 z M 158.81653 823.14702 A 35.417934 35.284634 0 0 1 194.23462 858.43145 A 35.417934 35.284634 0 0 1 158.81653 893.71587 A 35.417934 35.284634 0 0 1 123.39844 858.43145 A 35.417934 35.284634 0 0 1 158.81653 823.14702 z M 241.34033 849.50139 A 49.110081 47.962063 0 0 1 290.45105 897.46404 A 49.110081 47.962063 0 0 1 241.34033 945.42669 A 49.110081 47.962063 0 0 1 192.23145 897.46404 A 49.110081 47.962063 0 0 1 241.34033 849.50139 z " />
    <ellipse
       cx="183.16985"
       cy="761.22137"
       rx="13.897278"
       ry="13.561032"
       style="fill:#000000;fill-opacity:1;fill-rule:evenodd;stroke:#000000;stroke-width:0.80361551;stroke-linecap:butt;stroke-linejoin:miter;stroke-miterlimit:4;stroke-dasharray:none;stroke-opacity:1"
       id="ellipse4236"
       inkscape:export-xdpi="600"
       inkscape:export-ydpi="600" />
    <ellipse
       id="ellipse4238"
       style="fill:#000000;fill-opacity:1;fill-rule:evenodd;stroke:#000000;stroke-width:0.80361551;stroke-linecap:butt;stroke-linejoin:miter;stroke-miterlimit:4;stroke-dasharray:none;stroke-opacity:1"
       ry="13.561032"
       rx="13.897278"
       cy="761.62726"
       cx="301.68887"
       inkscape:export-xdpi="600"
       inkscape:export-ydpi="600" />
    <ellipse
       cx="241.6176"
       cy="896.38177"
       rx="13.897278"
       ry="13.561032"
       style="fill:#000000;fill-opacity:1;fill-rule:evenodd;stroke:#000000;stroke-width:0.80361551;stroke-linecap:butt;stroke-linejoin:miter;stroke-miterlimit:4;stroke-dasharray:none;stroke-opacity:1"
       id="ellipse4242"
       inkscape:export-xdpi="600"
       inkscape:export-ydpi="600" />
    <ellipse
       style="fill:#000000;fill-opacity:1;fill-rule:evenodd;stroke:#000000;stroke-width:0.80361551px;stroke-linecap:butt;stroke-linejoin:miter;stroke-opacity:1"
       id="path4244"
       cx="159.01891"
       cy="859.65741"
       rx="8.3206863"
       ry="8.5236301"
       inkscape:export-xdpi="600"
       inkscape:export-ydpi="600" />
    <ellipse
       ry="8.5236301"
       rx="8.3206863"
       cy="858.05017"
       cx="323.82541"
       id="ellipse4246"
       style="fill:#000000;fill-opacity:1;fill-rule:evenodd;stroke:#000000;stroke-width:0.80361551px;stroke-linecap:butt;stroke-linejoin:miter;stroke-opacity:1"
       inkscape:export-xdpi="600"
       inkscape:export-ydpi="600" />
    <path
       style="fill:none;fill-opacity:1;fill-rule:evenodd;stroke:#000000;stroke-width:8.0361557;stroke-linecap:butt;stroke-linejoin:miter;stroke-miterlimit:4;stroke-dasharray:none;stroke-opacity:1"
       d="m 198.18703,988.32364 c 0,0 -6.66782,-2.19499 -9.94424,-3.45 -31.71412,-12.14818 -62.46443,-31.40112 -83.00392,-58.24485 -24.394881,-31.88247 -42.213657,-73.11625 -40.994596,-113.24251 1.356229,-44.64133 21.515455,-91.47823 53.171216,-122.9838 32.0082,-31.85635 79.45046,-53.62721 124.60735,-53.17121 46.74595,0.47204 95.44768,23.94311 127.85444,57.63597 29.74719,30.92775 47.25492,76.43179 48.30057,119.33082 0.96028,39.39653 -14.93101,80.38807 -38.96516,111.619 -21.71854,28.22185 -55.5667,48.51114 -88.4834,59.86831 -2.04335,0.70501 -6.0883,2.23237 -6.0883,2.23237 l -0.40589,17.85906 c -0.13072,5.7514 -5.61534,12.7921 -11.36484,12.9884 -31.9798,1.0919 -32.36299,0.4615 -60.07129,0.8118 -6.13425,0.077 -14.05648,-8.479 -14.20606,-14.612 z"
       id="path4248"
       inkscape:connector-curvature="0"
       sodipodi:nodetypes="csaaaaaaascssssc"
       inkscape:export-xdpi="600"
       inkscape:export-ydpi="600" />
    <path
       style="fill:none;fill-opacity:1;fill-rule:evenodd;stroke:#000000;stroke-width:8.0361557;stroke-linecap:butt;stroke-linejoin:miter;stroke-miterlimit:4;stroke-dasharray:none;stroke-opacity:1"
       d="m 199.43813,592.09026 80.36156,-0.574"
       id="path4271"
       inkscape:connector-curvature="0"
       inkscape:export-xdpi="600"
       inkscape:export-ydpi="600" />
    <path
       style="fill:#000000;fill-opacity:1;fill-rule:evenodd;stroke:#000000;stroke-width:8.0361557;stroke-linecap:butt;stroke-linejoin:miter;stroke-miterlimit:4;stroke-dasharray:none;stroke-opacity:1"
       d="m 199.43813,627.10494 -0.57401,-47.64291 c 0,0 -5.19308,0.0595 -7.46214,1.14802 -2.80831,1.34722 -5.9903,3.33159 -6.88814,6.31412 -5.17237,17.18207 -10.90621,46.4949 -10.90621,46.4949"
       id="path4273"
       inkscape:connector-curvature="0"
       sodipodi:nodetypes="ccasc"
       inkscape:export-xdpi="600"
       inkscape:export-ydpi="600" />
    <path
       sodipodi:nodetypes="ccasc"
       inkscape:connector-curvature="0"
       id="path4275"
       d="m 279.87413,627.67896 0.57401,-47.64292 c 0,0 5.19308,0.0595 7.46214,1.14802 2.80831,1.34722 5.9903,3.33159 6.88813,6.31412 5.17238,17.18207 10.90622,46.4949 10.90622,46.4949"
       style="fill:#000000;fill-opacity:1;fill-rule:evenodd;stroke:#000000;stroke-width:8.0361557;stroke-linecap:butt;stroke-linejoin:miter;stroke-miterlimit:4;stroke-dasharray:none;stroke-opacity:1"
       inkscape:export-xdpi="600"
       inkscape:export-ydpi="600" />
    <path
       inkscape:export-ydpi="600"
       inkscape:export-xdpi="600"
       sodipodi:nodetypes="cssaaaaasscssssc"
       inkscape:connector-curvature="0"
       id="path4162"
       d="m 189.37635,995.48635 c 0,0 -11.27148,-4.32996 -14.53865,-6.05741 C 143.03924,972.61609 117.59597,959.05171 98.728605,933.96219 73.386364,900.26247 54.241607,857.20003 55.526323,815.0729 c 1.42927,-46.86734 22.67414,-96.03974 56.034647,-129.11632 33.73195,-33.44485 83.72913,-56.30129 131.31785,-55.82256 49.26336,0.49558 100.58783,25.13702 134.7398,60.50996 31.34917,32.46994 49.79973,80.24301 50.9017,125.28117 1.01199,41.36103 -13.84237,83.22445 -41.06355,117.1848 -20.406,25.4579 -46.38252,40.3771 -79.44835,57.17122 -2.03019,1.03112 -13.72214,4.77902 -13.72214,4.77902 l -0.42775,18.74961 c -0.13776,6.0382 2.20001,19.1124 -3.85912,19.3185 -33.70201,1.1463 -54.40021,0.4845 -83.60068,0.8522 -6.4646,0.081 -15.54036,0.8368 -15.78288,-5.5992 z"
       style="fill:none;fill-opacity:1;fill-rule:evenodd;stroke:#000000;stroke-width:28.12654305;stroke-linecap:butt;stroke-linejoin:miter;stroke-miterlimit:4;stroke-dasharray:none;stroke-opacity:1" />
  </g>
</svg>
