<?xml version="1.0" encoding="UTF-8" standalone="no"?>
<!-- Created with Inkscape (http://www.inkscape.org/) -->

<svg
   width="32"
   height="32"
   viewBox="0 0 32 32"
   version="1.1"
   id="svg1"
   xml:space="preserve"
   inkscape:version="1.3 (0e150ed, 2023-07-21)"
   sodipodi:docname="fuelstation.svg"
   xmlns:inkscape="http://www.inkscape.org/namespaces/inkscape"
   xmlns:sodipodi="http://sodipodi.sourceforge.net/DTD/sodipodi-0.dtd"
   xmlns="http://www.w3.org/2000/svg"
   xmlns:svg="http://www.w3.org/2000/svg"><sodipodi:namedview
     id="namedview1"
     pagecolor="#ffffff"
     bordercolor="#000000"
     borderopacity="0.25"
     inkscape:showpageshadow="2"
     inkscape:pageopacity="0.0"
     inkscape:pagecheckerboard="0"
     inkscape:deskcolor="#d1d1d1"
     inkscape:document-units="px"
     inkscape:zoom="6.5605214"
     inkscape:cx="24.693159"
     inkscape:cy="11.813085"
     inkscape:window-width="1512"
     inkscape:window-height="916"
     inkscape:window-x="0"
     inkscape:window-y="38"
     inkscape:window-maximized="0"
     inkscape:current-layer="layer1" /><defs
     id="defs1" /><g
     inkscape:label="Laag 1"
     inkscape:groupmode="layer"
     id="layer1"><g
       id="g3-7-7"
       transform="matrix(0.18654008,0,0,0.18654008,-847.38406,328.49708)"
       style="display:inline;enable-background:new;fill:#053c86;fill-opacity:1"><path
         id="path1-0-5-42-2-8"
         style="display:inline;fill:#053c86;fill-opacity:1;stroke-width:13.1958;enable-background:new"
         d="m 4564.4805,-1761 c -1.3658,2e-4 -2.6849,0.2084 -3.9239,0.5938 -0.4132,0.1285 -0.8182,0.2764 -1.2128,0.4433 -1.5781,0.6677 -2.9999,1.6346 -4.1934,2.8281 -0.2985,0.2985 -0.5827,0.6097 -0.8516,0.9356 -1.6139,1.9552 -2.675,4.3827 -2.9453,7.0449 -0.045,0.4436 -0.068,0.8941 -0.068,1.3496 v 43.5527 0 101.6016 c 0,7.288 5.9073,13.1953 13.1953,13.1953 h 79.1757 c 7.288,0 13.1954,-5.9073 13.1954,-13.1953 v -52.7832 h 2.498 c 3.6433,6e-4 6.5996,2.9544 6.5996,6.5977 v 26.3925 c 0,10.9314 8.8617,19.793 19.793,19.793 10.9314,0 19.793,-8.8616 19.793,-19.793 v -85.7734 c 0,-7.2879 -5.9074,-13.1953 -13.1954,-13.1953 v -19.9258 c -0.071,-3.5919 -3.0044,-6.4662 -6.5976,-6.4648 -3.7159,0.062 -6.6793,3.1225 -6.6172,6.8398 0,0.1385 0.011,0.2795 0.02,0.418 v 32.3281 c 0,7.288 5.9074,13.1973 13.1953,13.1973 v 72.5761 c 0,3.6433 -2.9542,6.5977 -6.5976,6.5977 -3.6433,0 -6.5977,-2.9544 -6.5977,-6.5977 v -26.3925 c 0,-10.9313 -8.8636,-19.7911 -19.7949,-19.793 h -2.498 v -35.6231 -43.5527 c 0,-0.911 -0.092,-1.8011 -0.2676,-2.6601 -0.1758,-0.8591 -0.4357,-1.6873 -0.7695,-2.4766 -0.167,-0.3947 -0.3516,-0.7784 -0.5547,-1.1524 -0.4063,-0.7478 -0.8821,-1.4518 -1.42,-2.1035 -5e-4,-7e-4 0,0 0,0 -0.2687,-0.3255 -0.5534,-0.6374 -0.8516,-0.9356 -2.3878,-2.3878 -5.6861,-3.8652 -9.3301,-3.8652 z m 6.5976,26.3926 h 65.9785 v 0 c 0.4547,1e-4 0.8992,0.047 1.3281,0.1347 6e-4,2e-4 0,-10e-5 0,0 1.2878,0.264 2.4385,0.9038 3.334,1.7989 0.2986,0.2985 0.5693,0.6236 0.8066,0.9746 0.7118,1.053 1.1269,2.3232 1.1269,3.6894 v 25.043 14.543 c 0,3.6434 -2.9543,6.5996 -6.5976,6.5996 h -9.7676 -46.4453 -9.7676 c -3.6433,0 -6.5976,-2.9562 -6.5976,-6.5996 v -14.543 -25.043 c 0,-0.9108 0.1856,-1.779 0.5195,-2.5683 0.3341,-0.7893 0.8168,-1.4987 1.4141,-2.0957 1.194,-1.194 2.8424,-1.9336 4.664,-1.9336 z"
         sodipodi:nodetypes="csssssscccccscsssssscccccscsssssccssssscsscscsscssscssccsscssss" /></g></g></svg>
